<svg xmlns="http://www.w3.org/2000/svg" xmlns:xlink="http://www.w3.org/1999/xlink" width="500" zoomAndPan="magnify" viewBox="0 0 375 149.999998" height="200" preserveAspectRatio="xMidYMid meet" version="1.0"><defs><g/></defs><g fill="#e4e2dd" fill-opacity="1"><g transform="translate(59.234673, 100.024802)"><g><path d="M 30.40625 -10.359375 C 32.144531 -10.359375 33.835938 -10.617188 35.484375 -11.140625 C 37.128906 -11.671875 38.335938 -12.179688 39.109375 -12.671875 L 40.265625 -13.46875 L 45.140625 -3.71875 C 44.984375 -3.59375 44.757812 -3.425781 44.46875 -3.21875 C 44.1875 -3.019531 43.523438 -2.644531 42.484375 -2.09375 C 41.453125 -1.550781 40.347656 -1.078125 39.171875 -0.671875 C 37.992188 -0.265625 36.445312 0.0976562 34.53125 0.421875 C 32.625 0.742188 30.660156 0.90625 28.640625 0.90625 C 23.960938 0.90625 19.53125 -0.238281 15.34375 -2.53125 C 11.164062 -4.820312 7.796875 -7.976562 5.234375 -12 C 2.679688 -16.019531 1.40625 -20.363281 1.40625 -25.03125 C 1.40625 -28.570312 2.15625 -31.96875 3.65625 -35.21875 C 5.15625 -38.46875 7.15625 -41.25 9.65625 -43.5625 C 12.15625 -45.875 15.066406 -47.71875 18.390625 -49.09375 C 21.722656 -50.476562 25.140625 -51.171875 28.640625 -51.171875 C 31.878906 -51.171875 34.867188 -50.785156 37.609375 -50.015625 C 40.359375 -49.242188 42.300781 -48.472656 43.4375 -47.703125 L 45.140625 -46.546875 L 40.265625 -36.796875 C 39.984375 -37.035156 39.554688 -37.328125 38.984375 -37.671875 C 38.421875 -38.023438 37.285156 -38.484375 35.578125 -39.046875 C 33.867188 -39.617188 32.144531 -39.90625 30.40625 -39.90625 C 27.632812 -39.90625 25.148438 -39.457031 22.953125 -38.5625 C 20.765625 -37.664062 19.03125 -36.488281 17.75 -35.03125 C 16.476562 -33.570312 15.503906 -32 14.828125 -30.3125 C 14.160156 -28.625 13.828125 -26.90625 13.828125 -25.15625 C 13.828125 -21.34375 15.257812 -17.921875 18.125 -14.890625 C 20.988281 -11.867188 25.082031 -10.359375 30.40625 -10.359375 Z M 30.40625 -10.359375 "/></g></g></g><g fill="#e4e2dd" fill-opacity="1"><g transform="translate(105.101334, 100.024802)"><g><path d="M 6.609375 -3.71875 C 3.140625 -6.800781 1.40625 -10.757812 1.40625 -15.59375 C 1.40625 -20.425781 3.210938 -24.394531 6.828125 -27.5 C 10.441406 -30.613281 14.90625 -32.171875 20.21875 -32.171875 C 25.457031 -32.171875 29.875 -30.601562 33.46875 -27.46875 C 37.070312 -24.34375 38.875 -20.382812 38.875 -15.59375 C 38.875 -10.800781 37.113281 -6.851562 33.59375 -3.75 C 30.082031 -0.644531 25.625 0.90625 20.21875 0.90625 C 14.613281 0.90625 10.078125 -0.632812 6.609375 -3.71875 Z M 14.953125 -20.890625 C 13.554688 -19.515625 12.859375 -17.75 12.859375 -15.59375 C 12.859375 -13.4375 13.523438 -11.675781 14.859375 -10.3125 C 16.203125 -8.957031 17.972656 -8.28125 20.171875 -8.28125 C 22.273438 -8.28125 24.007812 -8.96875 25.375 -10.34375 C 26.738281 -11.726562 27.421875 -13.476562 27.421875 -15.59375 C 27.421875 -17.75 26.71875 -19.515625 25.3125 -20.890625 C 23.914062 -22.273438 22.203125 -22.96875 20.171875 -22.96875 C 18.097656 -22.96875 16.359375 -22.273438 14.953125 -20.890625 Z M 14.953125 -20.890625 "/></g></g></g><g fill="#e4e2dd" fill-opacity="1"><g transform="translate(145.364105, 100.024802)"><g><path d="M 5.78125 -3.875 C 2.863281 -7.0625 1.40625 -10.96875 1.40625 -15.59375 C 1.40625 -20.226562 2.863281 -24.148438 5.78125 -27.359375 C 8.707031 -30.566406 12.425781 -32.171875 16.9375 -32.171875 C 21.082031 -32.171875 24.492188 -30.867188 27.171875 -28.265625 L 27.171875 -52.390625 L 37.953125 -52.390625 L 37.953125 0 L 27.296875 0 L 27.296875 -3.53125 L 27.171875 -3.53125 C 24.492188 -0.570312 21.082031 0.90625 16.9375 0.90625 C 12.425781 0.90625 8.707031 -0.6875 5.78125 -3.875 Z M 14.953125 -20.890625 C 13.554688 -19.515625 12.859375 -17.75 12.859375 -15.59375 C 12.859375 -13.4375 13.523438 -11.675781 14.859375 -10.3125 C 16.203125 -8.957031 17.972656 -8.28125 20.171875 -8.28125 C 22.273438 -8.28125 24.007812 -8.96875 25.375 -10.34375 C 26.738281 -11.726562 27.421875 -13.476562 27.421875 -15.59375 C 27.421875 -17.75 26.71875 -19.515625 25.3125 -20.890625 C 23.914062 -22.273438 22.203125 -22.96875 20.171875 -22.96875 C 18.097656 -22.96875 16.359375 -22.273438 14.953125 -20.890625 Z M 14.953125 -20.890625 "/></g></g></g><g fill="#e4e2dd" fill-opacity="1"><g transform="translate(186.96694, 100.024802)"><g><path d="M 35.28125 -14.140625 L 12.609375 -14.140625 C 12.609375 -11.941406 13.316406 -10.3125 14.734375 -9.25 C 16.160156 -8.195312 17.707031 -7.671875 19.375 -7.671875 C 21.125 -7.671875 22.503906 -7.90625 23.515625 -8.375 C 24.523438 -8.84375 25.679688 -9.769531 26.984375 -11.15625 L 34.78125 -7.25 C 31.53125 -1.8125 26.128906 0.90625 18.578125 0.90625 C 13.867188 0.90625 9.828125 -0.703125 6.453125 -3.921875 C 3.085938 -7.148438 1.40625 -11.039062 1.40625 -15.59375 C 1.40625 -20.144531 3.085938 -24.046875 6.453125 -27.296875 C 9.828125 -30.546875 13.867188 -32.171875 18.578125 -32.171875 C 23.535156 -32.171875 27.566406 -30.738281 30.671875 -27.875 C 33.773438 -25.007812 35.328125 -20.914062 35.328125 -15.59375 C 35.328125 -14.863281 35.3125 -14.378906 35.28125 -14.140625 Z M 12.921875 -20.109375 L 24.796875 -20.109375 C 24.546875 -21.734375 23.90625 -22.976562 22.875 -23.84375 C 21.84375 -24.71875 20.515625 -25.15625 18.890625 -25.15625 C 17.097656 -25.15625 15.671875 -24.6875 14.609375 -23.75 C 13.554688 -22.820312 12.992188 -21.609375 12.921875 -20.109375 Z M 12.921875 -20.109375 "/></g></g></g><g fill="#e4e2dd" fill-opacity="1"><g transform="translate(223.696813, 100.024802)"><g><path d="M 15.109375 -50.265625 L 15.109375 -10.046875 L 32.40625 -10.046875 L 32.40625 0 L 3.65625 0 L 3.65625 -50.265625 Z M 15.109375 -50.265625 "/></g></g></g><g fill="#e4e2dd" fill-opacity="1"><g transform="translate(258.112041, 100.024802)"><g><path d="M 45.203125 0 L 42.828125 -29.796875 L 42.53125 -29.796875 L 32.234375 -0.296875 L 25.40625 -0.296875 L 15.109375 -29.796875 L 14.796875 -29.796875 L 12.421875 0 L 0.96875 0 L 5.484375 -50.265625 L 17.671875 -50.265625 L 28.8125 -21.265625 L 39.96875 -50.265625 L 52.15625 -50.265625 L 56.65625 0 Z M 45.203125 0 "/></g></g></g><path stroke-linecap="butt" transform="matrix(1.142212, 0, 0, 1.142212, 26.502306, 121.420344)" fill="none" stroke-linejoin="miter" d="M 0.00140068 5.001235 L 84.431894 5.001235 " stroke="#e4e2dd" stroke-width="10" stroke-opacity="1" stroke-miterlimit="4"/><path stroke-linecap="butt" transform="matrix(0, 1.142212, -1.142212, 0, 37.918573, 35.231056)" fill="none" stroke-linejoin="miter" d="M -0.000513946 5.000423 L 82.463537 5.000423 " stroke="#e4e2dd" stroke-width="10" stroke-opacity="1" stroke-miterlimit="4"/><path stroke-linecap="butt" transform="matrix(-1.142212, 0, 0, -1.142212, 347.687328, 28.579635)" fill="none" stroke-linejoin="miter" d="M -0.000150897 5.001216 L 84.433763 5.001216 " stroke="#e4e2dd" stroke-width="10" stroke-opacity="1" stroke-miterlimit="4"/><path stroke-linecap="butt" transform="matrix(0, -1.142212, 1.142212, 0, 336.272182, 114.768936)" fill="none" stroke-linejoin="miter" d="M -0.000521046 5.000993 L 82.46353 5.000993 " stroke="#e4e2dd" stroke-width="10" stroke-opacity="1" stroke-miterlimit="4"/></svg>