<svg xmlns="http://www.w3.org/2000/svg" xmlns:xlink="http://www.w3.org/1999/xlink" width="500" zoomAndPan="magnify" viewBox="0 0 375 374.999991" height="500" preserveAspectRatio="xMidYMid meet" version="1.0"><defs><g/></defs><rect x="-37.5" width="450" fill="#ffffff" y="-37.499999" height="449.999989" fill-opacity="1"/><rect x="-37.5" width="450" fill="#e4e2dd" y="-37.499999" height="449.999989" fill-opacity="1"/><g fill="#000000" fill-opacity="1"><g transform="translate(48.155098, 209.308612)"><g><path d="M 33.828125 -11.515625 C 35.765625 -11.515625 37.648438 -11.804688 39.484375 -12.390625 C 41.316406 -12.984375 42.660156 -13.550781 43.515625 -14.09375 L 44.796875 -14.984375 L 50.21875 -4.140625 C 50.039062 -4.003906 49.789062 -3.820312 49.46875 -3.59375 C 49.15625 -3.363281 48.421875 -2.941406 47.265625 -2.328125 C 46.117188 -1.722656 44.890625 -1.191406 43.578125 -0.734375 C 42.273438 -0.285156 40.5625 0.113281 38.4375 0.46875 C 36.3125 0.832031 34.117188 1.015625 31.859375 1.015625 C 26.660156 1.015625 21.734375 -0.257812 17.078125 -2.8125 C 12.421875 -5.363281 8.671875 -8.875 5.828125 -13.34375 C 2.984375 -17.820312 1.5625 -22.660156 1.5625 -27.859375 C 1.5625 -31.785156 2.394531 -35.554688 4.0625 -39.171875 C 5.738281 -42.785156 7.960938 -45.878906 10.734375 -48.453125 C 13.515625 -51.035156 16.757812 -53.09375 20.46875 -54.625 C 24.175781 -56.164062 27.972656 -56.9375 31.859375 -56.9375 C 35.472656 -56.9375 38.804688 -56.503906 41.859375 -55.640625 C 44.910156 -54.785156 47.066406 -53.929688 48.328125 -53.078125 L 50.21875 -51.78125 L 44.796875 -40.9375 C 44.484375 -41.207031 44.007812 -41.535156 43.375 -41.921875 C 42.75 -42.304688 41.484375 -42.8125 39.578125 -43.4375 C 37.679688 -44.070312 35.765625 -44.390625 33.828125 -44.390625 C 30.753906 -44.390625 27.992188 -43.894531 25.546875 -42.90625 C 23.109375 -41.914062 21.175781 -40.601562 19.75 -38.96875 C 18.332031 -37.34375 17.25 -35.59375 16.5 -33.71875 C 15.757812 -31.84375 15.390625 -29.9375 15.390625 -28 C 15.390625 -23.75 16.976562 -19.9375 20.15625 -16.5625 C 23.34375 -13.195312 27.898438 -11.515625 33.828125 -11.515625 Z M 33.828125 -11.515625 "/></g></g></g><g fill="#000000" fill-opacity="1"><g transform="translate(99.196892, 209.308612)"><g><path d="M 7.359375 -4.125 C 3.492188 -7.5625 1.5625 -11.96875 1.5625 -17.34375 C 1.5625 -22.726562 3.570312 -27.144531 7.59375 -30.59375 C 11.613281 -34.050781 16.582031 -35.78125 22.5 -35.78125 C 28.332031 -35.78125 33.25 -34.039062 37.25 -30.5625 C 41.25 -27.082031 43.25 -22.675781 43.25 -17.34375 C 43.25 -12.019531 41.289062 -7.628906 37.375 -4.171875 C 33.46875 -0.710938 28.507812 1.015625 22.5 1.015625 C 16.269531 1.015625 11.222656 -0.695312 7.359375 -4.125 Z M 16.640625 -23.234375 C 15.078125 -21.703125 14.296875 -19.738281 14.296875 -17.34375 C 14.296875 -14.957031 15.039062 -13.003906 16.53125 -11.484375 C 18.03125 -9.972656 20 -9.21875 22.4375 -9.21875 C 24.78125 -9.21875 26.707031 -9.984375 28.21875 -11.515625 C 29.738281 -13.054688 30.5 -15.003906 30.5 -17.359375 C 30.5 -19.742188 29.71875 -21.703125 28.15625 -23.234375 C 26.601562 -24.773438 24.695312 -25.546875 22.4375 -25.546875 C 20.132812 -25.546875 18.203125 -24.773438 16.640625 -23.234375 Z M 16.640625 -23.234375 "/></g></g></g><g fill="#000000" fill-opacity="1"><g transform="translate(144.00251, 209.308612)"><g><path d="M 6.4375 -4.296875 C 3.1875 -7.847656 1.5625 -12.195312 1.5625 -17.34375 C 1.5625 -22.5 3.1875 -26.859375 6.4375 -30.421875 C 9.6875 -33.992188 13.820312 -35.78125 18.84375 -35.78125 C 23.445312 -35.78125 27.242188 -34.335938 30.234375 -31.453125 L 30.234375 -58.296875 L 42.234375 -58.296875 L 42.234375 0 L 30.359375 0 L 30.359375 -3.9375 L 30.234375 -3.9375 C 27.242188 -0.632812 23.445312 1.015625 18.84375 1.015625 C 13.820312 1.015625 9.6875 -0.753906 6.4375 -4.296875 Z M 16.640625 -23.234375 C 15.078125 -21.703125 14.296875 -19.738281 14.296875 -17.34375 C 14.296875 -14.957031 15.039062 -13.003906 16.53125 -11.484375 C 18.03125 -9.972656 20 -9.21875 22.4375 -9.21875 C 24.78125 -9.21875 26.707031 -9.984375 28.21875 -11.515625 C 29.738281 -13.054688 30.5 -15.003906 30.5 -17.359375 C 30.5 -19.742188 29.71875 -21.703125 28.15625 -23.234375 C 26.601562 -24.773438 24.695312 -25.546875 22.4375 -25.546875 C 20.132812 -25.546875 18.203125 -24.773438 16.640625 -23.234375 Z M 16.640625 -23.234375 "/></g></g></g><g fill="#000000" fill-opacity="1"><g transform="translate(190.29939, 209.308612)"><g><path d="M 39.25 -15.71875 L 14.03125 -15.71875 C 14.03125 -13.28125 14.820312 -11.472656 16.40625 -10.296875 C 17.988281 -9.128906 19.703125 -8.546875 21.546875 -8.546875 C 23.492188 -8.546875 25.03125 -8.800781 26.15625 -9.3125 C 27.289062 -9.832031 28.582031 -10.863281 30.03125 -12.40625 L 38.703125 -8.0625 C 35.085938 -2.007812 29.078125 1.015625 20.671875 1.015625 C 15.429688 1.015625 10.9375 -0.78125 7.1875 -4.375 C 3.4375 -7.96875 1.5625 -12.289062 1.5625 -17.34375 C 1.5625 -22.40625 3.4375 -26.742188 7.1875 -30.359375 C 10.9375 -33.972656 15.429688 -35.78125 20.671875 -35.78125 C 26.179688 -35.78125 30.664062 -34.1875 34.125 -31 C 37.582031 -27.820312 39.3125 -23.273438 39.3125 -17.359375 C 39.3125 -16.535156 39.289062 -15.988281 39.25 -15.71875 Z M 14.375 -22.375 L 27.59375 -22.375 C 27.320312 -24.175781 26.609375 -25.5625 25.453125 -26.53125 C 24.296875 -27.507812 22.816406 -28 21.015625 -28 C 19.023438 -28 17.441406 -27.476562 16.265625 -26.4375 C 15.085938 -25.394531 14.457031 -24.039062 14.375 -22.375 Z M 14.375 -22.375 "/></g></g></g><g fill="#000000" fill-opacity="1"><g transform="translate(231.173493, 209.308612)"><g><path d="M 16.8125 -55.921875 L 16.8125 -11.1875 L 36.0625 -11.1875 L 36.0625 0 L 4.0625 0 L 4.0625 -55.921875 Z M 16.8125 -55.921875 "/></g></g></g><g fill="#000000" fill-opacity="1"><g transform="translate(269.47179, 209.308612)"><g><path d="M 50.296875 0 L 47.65625 -33.140625 L 47.3125 -33.140625 L 35.859375 -0.34375 L 28.265625 -0.34375 L 16.8125 -33.140625 L 16.46875 -33.140625 L 13.828125 0 L 1.078125 0 L 6.09375 -55.921875 L 19.65625 -55.921875 L 32.0625 -23.65625 L 44.46875 -55.921875 L 58.015625 -55.921875 L 63.03125 0 Z M 50.296875 0 "/></g></g></g><path stroke-linecap="butt" transform="matrix(1.271087, 0, 0, 1.271087, 20.807101, 233.118222)" fill="none" stroke-linejoin="miter" d="M 0.00117403 4.999211 L 84.433064 4.999211 " stroke="#292929" stroke-width="10" stroke-opacity="1" stroke-miterlimit="4"/><path stroke-linecap="butt" transform="matrix(0, 1.271087, -1.271087, 0, 33.51146, 137.204185)" fill="none" stroke-linejoin="miter" d="M -0.000833609 4.999821 L 82.464236 4.999821 " stroke="#292929" stroke-width="10" stroke-opacity="1" stroke-miterlimit="4"/><path stroke-linecap="butt" transform="matrix(-1.271087, 0, 0, -1.271087, 357.94633, 135.833605)" fill="none" stroke-linejoin="miter" d="M 0.000800334 5.001263 L 84.43269 5.001263 " stroke="#292929" stroke-width="10" stroke-opacity="1" stroke-miterlimit="4"/><path stroke-linecap="butt" transform="matrix(0, -1.271087, 1.271087, 0, 345.241945, 231.747626)" fill="none" stroke-linejoin="miter" d="M 0.00120513 5.000216 L 82.463202 5.000216 " stroke="#292929" stroke-width="10" stroke-opacity="1" stroke-miterlimit="4"/></svg>